<?xml version="1.0" standalone="no"?>
<!DOCTYPE svg PUBLIC "-//W3C//DTD SVG 20010904//EN"
 "http://www.w3.org/TR/2001/REC-SVG-20010904/DTD/svg10.dtd">
<svg version="1.0" xmlns="http://www.w3.org/2000/svg"
 width="512.000000pt" height="512.000000pt" viewBox="0 0 512.000000 512.000000"
 preserveAspectRatio="xMidYMid meet">
<metadata>
Created by potrace 1.14, written by Peter Selinger 2001-2017
</metadata>
<g transform="translate(0.000000,512.000000) scale(0.100000,-0.100000)"
fill="#000000" stroke="none">
<path d="M1330 4084 c0 -3 17 -25 37 -50 l37 -44 543 0 543 0 0 -667 0 -666
26 -34 c14 -18 29 -33 35 -33 5 0 9 110 9 280 l0 280 515 0 515 0 0 25 0 25
-515 0 -515 0 0 390 0 390 599 0 599 0 17 43 c9 23 19 48 22 55 4 9 -246 12
-1231 12 -680 0 -1236 -3 -1236 -6z"/>
<path d="M2560 2555 c0 -22 -4 -25 -35 -25 l-35 0 0 -700 0 -700 -476 -2 -476
-3 -35 -47 -35 -48 546 0 546 0 0 440 0 440 175 0 c162 0 175 1 185 19 5 11
10 22 10 25 0 3 -83 6 -185 6 l-185 0 0 285 0 285 380 0 380 0 0 25 0 25 -380
0 -380 0 0 -25z"/>
</g>
</svg>
